<?xml version="1.0" encoding="utf-8"?>
<!-- Generator: Adobe Illustrator 16.0.0, SVG Export Plug-In . SVG Version: 6.00 Build 0)  -->
<!DOCTYPE svg PUBLIC "-//W3C//DTD SVG 1.1//EN" "http://www.w3.org/Graphics/SVG/1.1/DTD/svg11.dtd">
<svg version="1.1" id="Layer_1" xmlns="http://www.w3.org/2000/svg" xmlns:xlink="http://www.w3.org/1999/xlink" x="0px" y="0px"
	 width="3000px" height="3000px" viewBox="0 0 3000 3000" enable-background="new 0 0 3000 3000" xml:space="preserve">
<g>
	<path d="M2792.794,380.163c-39.583,18.344-79.166,27.032-157.366,33.79c-222.05,20.274-309.905,85.924-465.341,350.454
		c-189.226,320.525-260.669,373.624-690.288,512.647c-366.866,119.715-414.173,139.022-498.166,204.673
		c-67.581,54.064-102.336,90.751-164.125,172.813c-74.338,98.476-90.751,110.061-157.366,110.061
		c-29.929-0.966-88.82-6.758-131.299-14.481c-122.611-22.205-195.984-19.309-239.429,9.654
		c-19.309,13.517-35.722,27.998-34.756,31.859c0,5.792,109.095,88.82,143.85,108.129c11.585,7.724,10.62,13.516-7.724,38.617
		c-52.133,69.512-69.511,100.406-69.511,121.646s3.861,23.171,46.341,23.171c25.102,0,70.477-5.793,99.44-13.517
		c69.511-18.344,253.91-107.163,351.419-169.917c219.154-140.954,291.563-154.47,613.054-115.853
		c87.854,10.62,190.191,19.31,228.808,19.31c67.581,0,69.512-0.967,96.544-33.791c15.447-18.343,33.791-49.237,39.583-69.512
		c21.24-61.788,43.445-109.095,51.168-109.095c18.344,0-25.101,195.019-59.856,263.564
		c-29.929,57.927-98.476,161.229-128.403,192.123l-26.066,27.032h36.687c50.202,0,159.297-40.549,219.153-80.131
		c102.338-69.513,185.364-173.779,243.291-308.941c14.481-35.721,30.894-64.684,35.721-64.684c3.862,0,3.862,28.963,0.966,63.719
		l-6.758,64.685l31.859-18.343c60.823-34.757,138.058-123.577,185.364-212.396c68.546-131.3,92.681-207.57,181.502-592.779
		c33.79-144.815,50.203-167.021,212.396-287.7c80.131-59.857,115.853-115.853,122.61-194.053
		C2904.784,350.234,2883.544,337.684,2792.794,380.163L2792.794,380.163z M151.356,2440.407l-49.237,193.088h36.687
		c41.514,0,36.687,10.619,77.235-164.125c11.586-50.203,24.136-94.612,27.032-98.475c3.862-4.827,32.825,52.134,65.65,125.507
		l58.892,132.266h74.339l57.927-132.266c31.859-73.373,59.856-132.265,62.753-133.229c2.896,0,20.274,60.821,36.687,134.195
		l31.859,134.195l37.652,3.862c21.24,1.93,38.618,1.93,38.618-0.966c0-1.931-22.205-90.751-50.203-195.983l-49.237-192.123
		l-34.756,2.896c-33.79,2.896-33.79,2.896-98.475,145.782c-35.721,78.199-66.615,144.814-68.546,146.745
		c-1.931,2.897-33.791-62.753-70.477-144.814L269.14,2247.32h-68.546L151.356,2440.407z M2020.443,2440.407v193.088h119.715
		c151.573,0,170.882-3.862,221.085-49.238c111.024-97.509,71.442-287.7-68.546-327.283c-19.309-4.827-88.82-9.653-153.505-9.653
		h-118.749V2440.407z M2290.766,2297.522c56.962,28.964,80.133,71.442,80.133,142.885c0,68.546-23.171,111.99-76.271,142.885
		c-32.824,18.344-49.237,21.239-129.369,19.309l-91.717-2.896l-2.896-149.643c-0.965-82.063,0-154.47,1.932-161.229
		c3.862-8.688,29.93-12.551,90.751-12.551C2231.874,2276.282,2256.011,2280.145,2290.766,2297.522L2290.766,2297.522z
		 M2503.162,2439.441v194.054h140.954c154.47,0,195.019-9.655,215.293-54.065c23.17-52.133,0.965-124.541-42.479-135.161
		c-25.102-5.792-33.79-23.171-11.585-23.171c25.101,0,50.202-38.617,50.202-78.199c0-27.999-6.758-44.411-27.032-63.719
		c-26.066-27.033-27.997-27.033-175.709-29.93l-149.644-2.896V2439.441z M2774.45,2286.902c27.998,14.481,40.549,55.03,27.998,86.89
		c-15.447,35.721-27.032,39.583-146.747,45.375l-104.267,4.827v-147.712h102.336
		C2709.767,2276.282,2763.831,2281.109,2774.45,2286.902z M2783.14,2464.543c50.203,26.067,46.341,111.025-4.828,130.334
		c-14.48,5.792-70.477,9.654-126.473,9.654h-100.404v-154.47h101.371C2724.247,2450.062,2763.831,2453.924,2783.14,2464.543z
		 M808.82,2363.173c-52.134,25.101-72.408,61.787-72.408,128.402c0,62.754,27.032,109.094,77.235,134.195
		c45.375,23.172,112.956,22.205,152.539-1.931c25.101-15.446,30.895-16.412,30.895-4.827c0,10.62,10.62,14.482,38.618,14.482h38.617
		v-279.978h-38.617c-27.998,0-38.618,3.861-38.618,14.481c0,18.344,1.931,18.344-43.445-4.826
		C905.363,2339.036,858.057,2339.036,808.82,2363.173L808.82,2363.173z M976.806,2425.925c17.378,17.379,23.17,33.791,24.136,65.65
		c1.931,76.27-61.788,119.714-132.265,89.786c-39.583-16.412-56.961-43.444-56.961-89.786
		C811.715,2404.686,913.087,2364.138,976.806,2425.925z M1289.607,2363.173c-17.378,10.619-31.859,23.17-31.859,28.962
		c0,4.828-3.862,9.655-9.654,9.655c-4.827,0-9.655-10.62-9.655-24.137c0-21.239-3.861-24.136-33.791-24.136h-33.79v279.978h67.581
		v-71.443c0-117.783,27.032-160.262,104.268-160.262c32.825,0,38.617-2.897,42.479-24.137c2.896-12.551,2.896-26.067,0-28.963
		C1373.601,2337.105,1318.57,2345.794,1289.607,2363.173z M1646.819,2358.346c-49.237,22.204-75.305,67.579-75.305,132.265
		c0,59.856,16.413,90.751,66.616,127.438c35.722,27.032,139.022,28.963,167.02,2.896c23.172-20.274,31.859-21.239,31.859-1.931
		c0,10.62,10.62,14.482,38.618,14.482h38.617v-279.978h-38.617c-32.824,0-38.618,2.896-38.618,19.309
		c0,19.309,0,19.309-28.962-0.966C1772.326,2344.828,1691.229,2338.071,1646.819,2358.346z M1775.223,2401.79
		c7.724,0,25.101,10.619,37.652,24.135c18.343,17.379,24.135,33.791,24.135,64.686c0,52.134-18.343,80.131-62.753,94.612
		c-67.58,22.205-139.023-39.583-126.473-110.06c8.689-48.271,61.788-87.855,100.406-77.235
		C1755.914,2399.858,1767.499,2401.79,1775.223,2401.79z M1431.527,2477.094c0,145.781,7.723,166.056,66.614,166.056
		c20.274,0,38.618-1.932,41.514-4.827c9.655-9.654-4.827-53.1-17.377-53.1c-10.62,0-13.517-23.171-13.517-115.853v-115.853h-77.234
		V2477.094z"/>
</g>
</svg>
